# xmcd
#
# Track frame offsets:
#  150
#  12294
#  22009
#  35458
#  48725
#  64778
#  78022
#  89423
#  102661
#  113536
#  126551
#  138816
#  156014
#  167598
#
# Disc length: 2397 seconds
#
# Revision: 0
# Processed by: cddbd v1.4PL0 Copyright (c) Steve Scherf et al.
# Submitted via: AltoMP3_Maker 3.0
#
DISCID=b2095b0e
DTITLE=Lost Wages - Foolin' Around
DYEAR=1900
DGENRE=
TTITLE0=Kentuckey Girl
TTITLE1=Air Mail Special On the Fly
TTITLE2=Think Of What You've Done
TTITLE3=Tarpology
TTITLE4=Lonesome Night
TTITLE5=Cabin On A Mountain
TTITLE6=Happy I'll Be
TTITLE7=Out of the Blues
TTITLE8=Black Jack
TTITLE9=Foolin' Around
TTITLE10=Roly Poly
TTITLE11=I'll Break Out Again Tonight
TTITLE12=Are You Teasin' Me
TTITLE13=I Second That Emotion
EXTD=
EXTT0=
EXTT1=
EXTT2=
EXTT3=
EXTT4=
EXTT5=
EXTT6=
EXTT7=
EXTT8=
EXTT9=
EXTT10=
EXTT11=
EXTT12=
EXTT13=
PLAYORDER=
